<?xml version="1.0" encoding="utf-8"?>
<!-- Generator: Adobe Illustrator 19.1.0, SVG Export Plug-In . SVG Version: 6.00 Build 0)  -->
<svg version="1.1" id="Layer_1" xmlns="http://www.w3.org/2000/svg" xmlns:xlink="http://www.w3.org/1999/xlink" x="0px" y="0px"
	 viewBox="5 306.9 606 229" style="enable-background:new 5 306.9 606 229;" xml:space="preserve">
<style type="text/css">
	.st0{fill:#FFFFFF;stroke:#3366FF;stroke-width:3;stroke-miterlimit:10;}
	.st1{fill:#3366FF;}
	.st2{font-family:'MyriadPro-Regular';}
	.st3{font-size:22px;}
	.st4{fill:#3366FF;stroke:#FFFFFF;stroke-width:3;stroke-miterlimit:10;}
	.st5{fill:#FFFFFF;}
	g{
		user-select: none;
		cursor: pointer;
	}
</style>
<desc>Created by HiQPdf</desc>
<g>
	<circle class="st0" cx="34.5" cy="335.1" r="24"/>
	<text transform="matrix(1 0 0 1 26.9245 341.5269)" class="st1 st2 st3">Q</text>
</g>
<g>
	<circle class="st0" cx="95.3" cy="335.1" r="24"/>
	<text transform="matrix(1 0 0 1 85.9752 341.5269)" class="st1 st2 st3">W</text>
</g>
<g>
	<circle class="st0" cx="156.1" cy="335.1" r="24"/>
	<text transform="matrix(1 0 0 1 150.647 341.5269)" class="st1 st2 st3">E</text>
</g>
<g>
	<circle class="st0" cx="216.8" cy="335.1" r="24"/>
	<text transform="matrix(1 0 0 1 210.9189 341.5269)" class="st1 st2 st3">R</text>
</g>
<g>
	<circle class="st0" cx="277.6" cy="335.1" r="24"/>
	<text transform="matrix(1 0 0 1 272.1479 341.5269)" class="st1 st2 st3">T</text>
</g>
<g>
	<circle class="st0" cx="338.4" cy="335.1" r="24"/>
	<text transform="matrix(1 0 0 1 332.4418 341.5269)" class="st1 st2 st3">Y</text>
</g>
<g>
	<circle class="st0" cx="399.2" cy="335.1" r="24"/>
	<text transform="matrix(1 0 0 1 392.0535 341.5269)" class="st1 st2 st3">U</text>
</g>
<g>
	<circle class="st0" cx="459.9" cy="335.1" r="24"/>
	<text transform="matrix(1 0 0 1 457.3191 341.5269)" class="st1 st2 st3">I</text>
</g>
<g>
	<circle class="st0" cx="520.7" cy="335.1" r="24"/>
	<text transform="matrix(1 0 0 1 513.1467 341.5269)" class="st1 st2 st3">O</text>
</g>
<g>
	<circle class="st0" cx="581.5" cy="335.1" r="24"/>
	<text transform="matrix(1 0 0 1 575.6515 341.5269)" class="st1 st2 st3">P</text>
</g>
<g>
	<circle class="st0" cx="64.9" cy="391.3" r="24"/>
	<text transform="matrix(1 0 0 1 58.1605 397.7173)" class="st1 st2 st3">A</text>
</g>
<g>
	<circle class="st0" cx="125.7" cy="391.3" r="24"/>
	<text transform="matrix(1 0 0 1 120.2474 397.7173)" class="st1 st2 st3">S</text>
</g>
<g>
	<circle class="st0" cx="186.4" cy="391.3" r="24"/>
	<text transform="matrix(1 0 0 1 179.1223 397.7173)" class="st1 st2 st3">D</text>
</g>
<g>
	<circle class="st0" cx="247.2" cy="391.3" r="24"/>
	<text transform="matrix(1 0 0 1 241.8689 397.7173)" class="st1 st2 st3">F</text>
</g>
<g>
	<circle class="st0" cx="308" cy="391.3" r="24"/>
	<text transform="matrix(1 0 0 1 300.8976 397.7173)" class="st1 st2 st3">G</text>
</g>
<g>
	<circle class="st0" cx="368.8" cy="391.3" r="24"/>
	<text transform="matrix(1 0 0 1 361.6095 397.7173)" class="st1 st2 st3">H</text>
</g>
<g>
	<circle class="st0" cx="429.6" cy="391.3" r="24"/>
	<text transform="matrix(1 0 0 1 425.4893 397.7173)" class="st1 st2 st3">J</text>
</g>
<g>
	<circle class="st0" cx="490.3" cy="391.3" r="24"/>
	<text transform="matrix(1 0 0 1 484.375 397.7173)" class="st1 st2 st3">K</text>
</g>
<g>
	<circle class="st0" cx="551.1" cy="391.3" r="24"/>
	<text transform="matrix(1 0 0 1 545.9228 397.7173)" class="st1 st2 st3">L</text>
</g>
<g>
	<circle class="st0" cx="95.3" cy="448.4" r="24"/>
	<text transform="matrix(1 0 0 1 89.1984 454.8287)" class="st1 st2 st3">Z</text>
</g>
<g>
	<circle class="st0" cx="156.1" cy="448.4" r="24"/>
	<text transform="matrix(1 0 0 1 149.7784 454.8287)" class="st1 st2 st3">X</text>
</g>
<g>
	<circle class="st0" cx="216.8" cy="448.4" r="24"/>
	<text transform="matrix(1 0 0 1 210.4571 454.8287)" class="st1 st2 st3">C</text>
</g>
<g>
	<circle class="st0" cx="277.6" cy="448.4" r="24"/>
	<text transform="matrix(1 0 0 1 271.4766 454.8287)" class="st1 st2 st3">V</text>
</g>
<g>
	<circle class="st0" cx="338.4" cy="448.4" r="24"/>
	<text transform="matrix(1 0 0 1 332.4306 454.8287)" class="st1 st2 st3">B</text>
</g>
<g>
	<circle class="st0" cx="399.2" cy="448.4" r="24"/>
	<text transform="matrix(1 0 0 1 391.9325 454.8287)" class="st1 st2 st3">N</text>
</g>
<g>
	<circle class="st0" cx="459.9" cy="448.4" r="24"/>
	<text transform="matrix(1 0 0 1 451.1042 454.8287)" class="st1 st2 st3">M</text>
</g>
<g>
	<circle class="st4" cx="520.7" cy="448.4" r="24"/>
	<text transform="matrix(1 0 0 1 509.3079 454.8287)" class="st1 st2 st3">bk</text>
	<path class="st5" d="M530.5,448.1v1.7c0,0.5-0.1,0.8-0.4,1.2c-0.3,0.4-0.7,0.5-1.1,0.5h-9.4l3.9,3.9c0.3,0.3,0.5,0.8,0.5,1.2
		s-0.1,0.9-0.5,1.2l-1,1c-0.3,0.3-0.7,0.5-1.2,0.5c-0.4,0-0.8-0.2-1.2-0.5l-8.7-8.7c-0.3-0.3-0.5-0.8-0.5-1.2s0.1-0.8,0.5-1.2
		l8.7-8.7c0.4-0.4,0.8-0.5,1.2-0.5s0.9,0.1,1.2,0.5l1,1c0.3,0.3,0.5,0.8,0.5,1.2s-0.1,0.8-0.5,1.2l-3.9,3.9h9.4
		c0.5,0,0.8,0.2,1.1,0.5S530.5,447.7,530.5,448.1z"/>
</g>
</svg>
