<?xml version="1.0" encoding="utf-8"?>
<!-- Generator: Adobe Illustrator 19.1.0, SVG Export Plug-In . SVG Version: 6.00 Build 0)  -->
<svg version="1.1" id="Layer_1" xmlns="http://www.w3.org/2000/svg" xmlns:xlink="http://www.w3.org/1999/xlink" x="0px" y="0px"
	 viewBox="-493 -107.6 1062 1060.4" style="enable-background:new -493 -107.6 1062 1060.4;" xml:space="preserve">
<style type="text/css">
	.st0{fill:none;stroke:#000000;stroke-width:12;stroke-miterlimit:10;}
	.st1{fill:none;stroke:#000000;stroke-miterlimit:10;}
	.st2{fill:none;}
	.st3{fill:none;stroke:#FFFFFF;stroke-width:2;stroke-miterlimit:10;}
	.st4{fill:none;stroke:#FFFFFF;stroke-width:5;stroke-miterlimit:10;}
	.st5{stroke:#FFFFFF;}
	.st6{font-family:'MyriadPro-Regular';}
	.st7{font-size:60px;}
</style>
<g id="Layer_2">
	<g>
		<path d="M9.8,47.5c48.6,0,95.8,9.5,140.1,28.3c42.9,18.1,81.4,44.1,114.4,77.2c33.1,33.1,59,71.6,77.2,114.4
			c18.8,44.3,28.3,91.5,28.3,140.1s-9.5,95.8-28.3,140.1c-18.1,42.9-44.1,81.4-77.2,114.4c-33.1,33.1-71.6,59-114.4,77.2
			C105.5,758,58.4,767.5,9.8,767.5S-86,758-130.4,739.2c-42.9-18.1-81.4-44.1-114.4-77.2c-33.1-33.1-59-71.6-77.2-114.4
			c-18.8-44.3-28.3-91.5-28.3-140.1s9.5-95.8,28.3-140.1c18.1-42.9,44.1-81.4,77.2-114.4c33.1-33.1,71.6-59,114.4-77.2
			C-86,57-38.9,47.5,9.8,47.5 M9.8-12.5c-232,0-420,188-420,420s188,420,420,420s420-188,420-420S241.7-12.5,9.8-12.5L9.8-12.5z"/>
	</g>
	<g>
		<path d="M9.8,117.7c39.2,0,77.1,7.7,112.9,22.8c34.5,14.6,65.5,35.5,92.2,62.2c26.7,26.7,47.6,57.7,62.2,92.2
			c15.1,35.7,22.8,73.7,22.8,112.9s-7.7,77.1-22.8,112.9c-14.6,34.5-35.5,65.5-62.2,92.2c-26.7,26.7-57.7,47.6-92.2,62.2
			C86.9,690,48.9,697.7,9.8,697.7s-77.1-7.7-112.9-22.8c-34.5-14.6-65.5-35.5-92.2-62.2c-26.7-26.7-47.6-57.7-62.2-92.2
			c-15.1-35.7-22.8-73.7-22.8-112.9s7.7-77.1,22.8-112.9c14.6-34.5,35.5-65.5,62.2-92.2c26.7-26.7,57.7-47.6,92.2-62.2
			C-67.4,125.3-29.4,117.7,9.8,117.7 M9.8,57.7c-193.3,0-350,156.7-350,350s156.7,350,350,350c193.3,0,350-156.7,350-350
			S203.1,57.7,9.8,57.7L9.8,57.7z"/>
	</g>
	<circle id="c1" class="st0" cx="10.8" cy="407.5" r="277.4"/>
</g>
<g id="Layer_1_1_">
	<polygon id="_x31__1_" class="st1" points="-39.2,199.3 -64.1,214.5 -89.1,199.6 -89.2,169.6 -64.4,154.4 -39.4,169.3 	"/>
	<polygon id="_x32__1_" class="st1" points="10.8,199.3 -14.1,214.5 -39.1,199.6 -39.2,169.6 -14.4,154.4 10.6,169.3 	"/>
	<polygon id="_x33__1_" class="st1" points="60.8,199.3 35.9,214.5 10.9,199.6 10.8,169.6 35.6,154.4 60.6,169.3 	"/>
	<polygon id="_x34__1_" class="st1" points="110.8,199.3 85.9,214.5 60.9,199.6 60.8,169.6 85.6,154.4 110.6,169.3 	"/>
	<polygon id="_x35__1_" class="st1" points="-114.2,244.4 -139.1,259.5 -164.1,244.7 -164.2,214.6 -139.4,199.5 -114.4,214.4 	"/>
	<polygon id="_x36__1_" class="st1" points="-64.2,244.4 -89.1,259.5 -114.1,244.7 -114.2,214.6 -89.4,199.5 -64.4,214.4 	"/>
	<polygon id="_x37__2_" class="st1" points="-14.2,244.4 -39.1,259.5 -64.1,244.7 -64.2,214.6 -39.4,199.5 -14.4,214.4 	"/>
	<polygon id="_x38__2_" class="st1" points="35.8,244.4 10.9,259.5 -14.1,244.7 -14.2,214.6 10.6,199.5 35.6,214.4 	"/>
	<polygon id="_x39__2_" class="st1" points="85.8,244.4 60.9,259.5 35.9,244.7 35.8,214.6 60.6,199.5 85.6,214.4 	"/>
	<polygon id="_x31_0_2_" class="st1" points="135.8,244.4 110.9,259.5 85.9,244.7 85.8,214.6 110.6,199.5 135.6,214.4 	"/>
	<polygon id="_x31_1_1_" class="st1" points="185.8,244.4 160.9,259.5 135.9,244.7 135.8,214.6 160.6,199.5 185.6,214.4 	"/>
	<polygon id="_x31_2_1_" class="st1" points="-139.2,289.3 -164.1,304.4 -189.1,289.5 -189.2,259.5 -164.4,244.4 -139.4,259.3 	"/>
	<polygon id="_x31_3_1_" class="st1" points="-89.2,289.3 -114.1,304.4 -139.1,289.5 -139.2,259.5 -114.4,244.4 -89.4,259.3 	"/>
	<polygon id="_x31_4_1_" class="st1" points="-39.2,289.3 -64.1,304.4 -89.1,289.5 -89.2,259.5 -64.4,244.4 -39.4,259.3 	"/>
	<polygon id="_x31_5_1_" class="st1" points="10.8,289.3 -14.1,304.4 -39.1,289.5 -39.2,259.5 -14.4,244.4 10.6,259.3 	"/>
	<polygon id="_x31_6_1_" class="st1" points="60.8,289.3 35.9,304.4 10.9,289.5 10.8,259.5 35.6,244.4 60.6,259.3 	"/>
	<polygon id="_x31_7_1_" class="st1" points="110.8,289.3 85.9,304.4 60.9,289.5 60.8,259.5 85.6,244.4 110.6,259.3 	"/>
	<polygon id="_x31_8_1_" class="st1" points="160.8,289.3 135.9,304.4 110.9,289.5 110.8,259.5 135.6,244.4 160.6,259.3 	"/>
	<polygon id="_x31_9_1_" class="st1" points="210.8,289.3 185.9,304.4 160.9,289.5 160.8,259.5 185.6,244.4 210.6,259.3 	"/>
	<polygon id="_x32_0_1_" class="st1" points="-164.2,334.2 -189.1,349.3 -214.1,334.4 -214.2,304.4 -189.4,289.3 -164.4,304.2 	"/>
	<polygon id="_x32_1_1_" class="st1" points="-114.2,334.2 -139.1,349.3 -164.1,334.4 -164.2,304.4 -139.4,289.3 -114.4,304.2 	"/>
	<polygon id="_x32_2_1_" class="st1" points="-64.2,334.2 -89.1,349.3 -114.1,334.4 -114.2,304.4 -89.4,289.3 -64.4,304.2 	"/>
	<polygon id="_x32_3_1_" class="st1" points="-14.2,334.2 -39.1,349.3 -64.1,334.4 -64.2,304.4 -39.4,289.3 -14.4,304.2 	"/>
	<polygon id="_x32_4_1_" class="st1" points="35.8,334.2 10.9,349.3 -14.1,334.4 -14.2,304.4 10.6,289.3 35.6,304.2 	"/>
	<polygon id="_x32_5_1_" class="st1" points="85.8,334.2 60.9,349.3 35.9,334.4 35.8,304.4 60.6,289.3 85.6,304.2 	"/>
	<polygon id="_x32_6_1_" class="st1" points="135.8,334.2 110.9,349.3 85.9,334.4 85.8,304.4 110.6,289.3 135.6,304.2 	"/>
	<polygon id="_x32_7_1_" class="st1" points="185.8,334.2 160.9,349.3 135.9,334.4 135.8,304.4 160.6,289.3 185.6,304.2 	"/>
	<polygon id="_x32_8_1_" class="st1" points="235.8,334.2 210.9,349.3 185.9,334.4 185.8,304.4 210.6,289.3 235.6,304.2 	"/>
	<polygon id="_x32_9_1_" class="st1" points="-189.2,378.7 -214.1,393.8 -239.1,378.9 -239.2,348.9 -214.4,333.8 -189.4,348.7 	"/>
	<polygon id="_x33_0_1_" class="st1" points="-139.2,378.7 -164.1,393.8 -189.1,378.9 -189.2,348.9 -164.4,333.8 -139.4,348.7 	"/>
	<polygon id="_x33_1_1_" class="st1" points="-89.2,378.7 -114.1,393.8 -139.1,378.9 -139.2,348.9 -114.4,333.8 -89.4,348.7 	"/>
	<polygon id="_x33_2_1_" class="st1" points="-39.2,378.7 -64.1,393.8 -89.1,378.9 -89.2,348.9 -64.4,333.8 -39.4,348.7 	"/>
	<polygon id="_x33_3_1_" class="st1" points="10.8,378.7 -14.1,393.8 -39.1,378.9 -39.2,348.9 -14.4,333.8 10.6,348.7 	"/>
	<polygon id="_x33_4_1_" class="st1" points="60.8,378.7 35.9,393.8 10.9,378.9 10.8,348.9 35.6,333.8 60.6,348.7 	"/>
	<polygon id="_x33_5_1_" class="st1" points="110.8,378.7 85.9,393.8 60.9,378.9 60.8,348.9 85.6,333.8 110.6,348.7 	"/>
	<polygon id="_x33_6_1_" class="st1" points="160.8,378.7 135.9,393.8 110.9,378.9 110.8,348.9 135.6,333.8 160.6,348.7 	"/>
	<polygon id="_x33_7_1_" class="st1" points="210.8,378.7 185.9,393.8 160.9,378.9 160.8,348.9 185.6,333.8 210.6,348.7 	"/>
	<polygon id="_x33_8_1_" class="st1" points="260.8,378.6 235.9,393.7 210.9,378.8 210.8,348.8 235.6,333.7 260.6,348.6 	"/>
	<polygon id="_x33_9_1_" class="st1" points="-164.2,423.4 -189.1,438.6 -214.1,423.7 -214.2,393.7 -189.4,378.5 -164.4,393.4 	"/>
	<polygon id="_x34_0_1_" class="st1" points="-114.2,423.4 -139.1,438.6 -164.1,423.7 -164.2,393.7 -139.4,378.5 -114.4,393.4 	"/>
	<polygon id="_x34_1_1_" class="st1" points="-64.2,423.4 -89.1,438.6 -114.1,423.7 -114.2,393.7 -89.4,378.5 -64.4,393.4 	"/>
	<polygon id="_x34_2_1_" class="st1" points="-14.2,423.4 -39.1,438.6 -64.1,423.7 -64.2,393.7 -39.4,378.5 -14.4,393.4 	"/>
	<polygon id="_x34_3_1_" class="st1" points="35.8,423.4 10.9,438.6 -14.1,423.7 -14.2,393.7 10.6,378.5 35.6,393.4 	"/>
	<polygon id="_x34_4_1_" class="st1" points="85.8,423.4 60.9,438.6 35.9,423.7 35.8,393.7 60.6,378.5 85.6,393.4 	"/>
	<polygon id="_x34_5_1_" class="st1" points="135.8,423.4 110.9,438.6 85.9,423.7 85.8,393.7 110.6,378.5 135.6,393.4 	"/>
	<polygon id="_x34_6_1_" class="st1" points="185.8,423.4 160.9,438.6 135.9,423.7 135.8,393.7 160.6,378.5 185.6,393.4 	"/>
	<polygon id="_x34_7_1_" class="st1" points="235.8,423.3 210.9,438.4 185.9,423.5 185.8,393.5 210.6,378.4 235.6,393.3 	"/>
	<polygon id="_x34_8_1_" class="st1" points="-189.2,468.4 -214.1,483.5 -239.1,468.7 -239.2,438.6 -214.4,423.5 -189.4,438.4 	"/>
	<polygon id="_x34_9_1_" class="st1" points="-139.2,468.4 -164.1,483.5 -189.1,468.7 -189.2,438.6 -164.4,423.5 -139.4,438.4 	"/>
	<polygon id="_x35_0_1_" class="st1" points="-89.2,468.4 -114.1,483.5 -139.1,468.7 -139.2,438.6 -114.4,423.5 -89.4,438.4 	"/>
	<polygon id="_x35_1_1_" class="st1" points="-39.2,468.4 -64.1,483.5 -89.1,468.7 -89.2,438.6 -64.4,423.5 -39.4,438.4 	"/>
	<polygon id="_x35_2_1_" class="st1" points="10.8,468.4 -14.1,483.5 -39.1,468.7 -39.2,438.6 -14.4,423.5 10.6,438.4 	"/>
	<polygon id="_x35_3_1_" class="st1" points="60.8,468.4 35.9,483.5 10.9,468.7 10.8,438.6 35.6,423.5 60.6,438.4 	"/>
	<polygon id="_x35_4_1_" class="st1" points="110.8,468.4 85.9,483.5 60.9,468.7 60.8,438.6 85.6,423.5 110.6,438.4 	"/>
	<polygon id="_x35_5_1_" class="st1" points="160.8,468.4 135.9,483.5 110.9,468.7 110.8,438.6 135.6,423.5 160.6,438.4 	"/>
	<polygon id="_x35_6_1_" class="st1" points="210.8,468.4 185.9,483.5 160.9,468.7 160.8,438.6 185.6,423.5 210.6,438.4 	"/>
	<polygon id="_x35_7_1_" class="st1" points="260.8,468.3 235.9,483.4 210.9,468.5 210.8,438.5 235.6,423.4 260.6,438.3 	"/>
	<polygon id="_x35_8_1_" class="st1" points="-164.2,513.1 -189.1,528.2 -214.1,513.3 -214.2,483.3 -189.4,468.2 -164.4,483.1 	"/>
	<polygon id="_x35_9_1_" class="st1" points="-114.2,513.1 -139.1,528.2 -164.1,513.3 -164.2,483.3 -139.4,468.2 -114.4,483.1 	"/>
	<polygon id="_x36_0_1_" class="st1" points="-64.2,513.1 -89.1,528.2 -114.1,513.3 -114.2,483.3 -89.4,468.2 -64.4,483.1 	"/>
	<polygon id="_x36_1_1_" class="st1" points="-14.2,513.1 -39.1,528.2 -64.1,513.3 -64.2,483.3 -39.4,468.2 -14.4,483.1 	"/>
	<polygon id="_x36_2_1_" class="st1" points="35.8,513.1 10.9,528.2 -14.1,513.3 -14.2,483.3 10.6,468.2 35.6,483.1 	"/>
	<polygon id="_x36_3_1_" class="st1" points="85.8,513.1 60.9,528.2 35.9,513.3 35.8,483.3 60.6,468.2 85.6,483.1 	"/>
	<polygon id="_x36_4_1_" class="st1" points="135.8,513.1 110.9,528.2 85.9,513.3 85.8,483.3 110.6,468.2 135.6,483.1 	"/>
	<polygon id="_x36_5_1_" class="st1" points="185.8,513.1 160.9,528.2 135.9,513.3 135.8,483.3 160.6,468.2 185.6,483.1 	"/>
	<polygon id="_x36_6_1_" class="st1" points="235.8,513.1 210.9,528.2 185.9,513.3 185.8,483.3 210.6,468.2 235.6,483.1 	"/>
	<polygon id="_x36_7_1_" class="st1" points="-139.2,557.5 -164.1,572.6 -189.1,557.7 -189.2,527.7 -164.4,512.6 -139.4,527.5 	"/>
	<polygon id="_x36_8_1_" class="st1" points="-89.2,557.5 -114.1,572.6 -139.1,557.7 -139.2,527.7 -114.4,512.6 -89.4,527.5 	"/>
	<polygon id="_x36_9_1_" class="st1" points="-39.2,557.5 -64.1,572.6 -89.1,557.7 -89.2,527.7 -64.4,512.6 -39.4,527.5 	"/>
	<polygon id="_x37_0_1_" class="st1" points="10.8,557.5 -14.1,572.6 -39.1,557.7 -39.2,527.7 -14.4,512.6 10.6,527.5 	"/>
	<polygon id="_x37_1_1_" class="st1" points="60.8,557.5 35.9,572.6 10.9,557.7 10.8,527.7 35.6,512.6 60.6,527.5 	"/>
	<polygon id="_x37_2_1_" class="st1" points="110.8,557.5 85.9,572.6 60.9,557.7 60.8,527.7 85.6,512.6 110.6,527.5 	"/>
	<polygon id="_x37_3_1_" class="st1" points="160.8,557.5 135.9,572.6 110.9,557.7 110.8,527.7 135.6,512.6 160.6,527.5 	"/>
	<polygon id="_x37_4_1_" class="st1" points="210.8,557.5 185.9,572.6 160.9,557.7 160.8,527.7 185.6,512.6 210.6,527.5 	"/>
	<polygon id="_x37_5_1_" class="st1" points="-114.2,602.5 -139.1,617.6 -164.1,602.7 -164.2,572.7 -139.4,557.6 -114.4,572.5 	"/>
	<polygon id="_x37_6_1_" class="st1" points="-64.2,602.5 -89.1,617.6 -114.1,602.7 -114.2,572.7 -89.4,557.6 -64.4,572.5 	"/>
	<polygon id="_x37_7_1_" class="st1" points="-14.2,602.5 -39.1,617.6 -64.1,602.7 -64.2,572.7 -39.4,557.6 -14.4,572.5 	"/>
	<polygon id="_x37_8_1_" class="st1" points="35.8,602.5 10.9,617.6 -14.1,602.7 -14.2,572.7 10.6,557.6 35.6,572.5 	"/>
	<polygon id="_x37_9_1_" class="st1" points="85.8,602.5 60.9,617.6 35.9,602.7 35.8,572.7 60.6,557.6 85.6,572.5 	"/>
	<polygon id="_x38_0_1_" class="st1" points="135.8,602.5 110.9,617.6 85.9,602.7 85.8,572.7 110.6,557.6 135.6,572.5 	"/>
	<polygon id="_x38_1_1_" class="st1" points="185.8,602.5 160.9,617.6 135.9,602.7 135.8,572.7 160.6,557.6 185.6,572.5 	"/>
	<polygon id="_x38_2_1_" class="st1" points="-39.1,647.4 -64,662.5 -89,647.6 -89.1,617.6 -64.2,602.5 -39.2,617.4 	"/>
	<polygon id="_x38_3_1_" class="st1" points="10.9,647.4 -14,662.5 -39,647.6 -39.1,617.6 -14.2,602.5 10.8,617.4 	"/>
	<polygon id="_x38_4_1_" class="st1" points="60.9,647.4 36,662.5 11,647.6 10.9,617.6 35.8,602.5 60.8,617.4 	"/>
	<polygon id="_x38_5_1_" class="st1" points="110.9,647.4 86,662.5 61,647.6 60.9,617.6 85.8,602.5 110.8,617.4 	"/>
</g>
<g id="textEntropy">
	<text class="st2">	<textPath  xlink:href="#SVGID_x5F_1_x5F_" startOffset="-59.2489%">
<tspan  class="st6" style="fill:#FFFFFF; font-size:69.1765px;">ENTROPY</tspan>	</textPath>
</text>
</g>
<g id="textVariance">
	<text class="st2">	<textPath  xlink:href="#SVGID_x5F_2_x5F_" startOffset="-8.7219%">
<tspan  class="st6" style="fill:#FFFFFF; font-size:70px;">VARIANCE</tspan>	</textPath>
</text>
</g>
<g id="Layer_3">
	<line class="st3" x1="-493" y1="408.5" x2="-338" y2="408.5"/>
	<line class="st3" x1="431" y1="407.5" x2="569" y2="407.5"/>
	<line class="st4" x1="569" y1="600.5" x2="569" y2="213.8"/>
	<line class="st3" x1="-432" y1="408.9" x2="-432" y2="-41.2"/>
	<line class="st4" x1="-493" y1="-41.2" x2="569" y2="-41.2"/>
</g>
<text id="CLUSTER" transform="matrix(1 0 0 1 -499.4562 -69.22)" class="st5 st6 st7">                                                                                    </text>
</svg>
